<svg xmlns="http://www.w4.org/2000/svg" width="24" height="24" fill="none"><path fill="#1D1C1D" fill-rule="evenodd" d="M14.509 1.529a.522.522 0 1 0-1.041.073l.162 2.316a.522.522 0 0 0 1.04-.073L14.51 1.53Zm3.238.657a.522.522 0 0 0-.985-.344l-.72 2.066a.522.522 0 1 0 .985.344l.72-2.066Zm-9.471.674a.94.94 0 0 0-.538-.168h-.005a.941.941 0 0 0-.638.247.52.52 0 0 1 .043.207v5.797a.522.522 0 1 1-1.044 0V3.686a.941.941 0 0 0-.454-.013c-.443.094-.74.522-.74.976v6.85s-1.634-1.487-2.734-1.487c-1.101 0-1.524 1.602-.047 2.014 1.445.402 3.47 3.063 3.47 3.063A3.77 3.77 0 0 0 8.9 16.69c.48-.027.93-.147 1.341-.341v-4.344c0-1.054.762-1.977 1.769-2.139l.042-.006c.027-.005.055-.01.083-.01.024-.36.137-.696.318-.985V6.783c0-.47-.323-.908-.788-.981-.052-.01-.104-.01-.156-.01a.95.95 0 0 0-.068.002v2.862a.522.522 0 1 1-1.043 0V4.225a.943.943 0 0 0-1.107-.34v5.172a.522.522 0 1 1-1.043 0V3.026c0-.058.01-.114.027-.166Zm12.203 1.174a.522.522 0 0 0-.773-.702l-1.565 1.722a.522.522 0 0 0 .772.702l1.566-1.722Zm-5.896 5.08a.944.944 0 0 0-1.278.883v1.502a.059.059 0 0 1-.01.035v3.382a.522.522 0 1 1-1.044 0v-3.893a.477.477 0 0 0-.047.007c-.465.073-.788.51-.788.98v6.006c0 2.019 1.534 3.787 3.553 3.902.078.005.151.005.224.005a3.77 3.77 0 0 0 3.09-1.606s2.023-2.661 3.469-3.063c1.476-.412 1.027-2.014-.047-2.014-1.075 0-2.734 1.487-2.734 1.487V9.866c0-.454-.298-.882-.741-.976a.898.898 0 0 0-.329-.012v5.804a.522.522 0 1 1-1.043 0V8.363a.52.52 0 0 1 .011-.107.943.943 0 0 0-.731-.346v.01a.94.94 0 0 0-.512.15v6.726a.522.522 0 1 1-1.043 0V9.113Zm-4.34 8.513c-.404.137-.83.222-1.274.248-.094.01-.193.01-.287.01a4.965 4.965 0 0 1-4.033-2.087c-.86-1.127-2.186-2.447-2.838-2.63C.397 12.773-.11 11.65.02 10.712a2.145 2.145 0 0 1 2.15-1.857c.516 0 1.059.182 1.565.433V4.654c0-1.023.704-1.915 1.675-2.118a2.05 2.05 0 0 1 .438-.047h.115a2.117 2.117 0 0 1 1.774-.966l-.005.006a2.11 2.11 0 0 1 1.873 1.127h.015c1.122 0 2.045.876 2.113 1.982l.126.016c1.006.167 1.768 1.085 1.768 2.139v1.168a2.108 2.108 0 0 0 .621-.093h.016a2.126 2.126 0 0 1 1.87-1.127c.74 0 1.396.387 1.771.965h.115c.146 0 .292.016.438.047.97.198 1.675 1.09 1.675 2.118v4.633c.506-.25 1.049-.433 1.566-.433 1.1 0 2.003.783 2.149 1.858.125.934-.376 2.055-1.79 2.452-.652.182-1.977 1.502-2.838 2.63a4.951 4.951 0 0 1-4.033 2.086c-.089 0-.178-.004-.272-.01h-.015c-2.614-.151-4.659-2.38-4.659-5.077v-.383ZM16.134 6.74h-.003.006-.003Z" clip-rule="evenodd"/></svg>