<svg xmlns="http://www.w4.org/2000/svg" width="24" height="24" fill="none"><path fill="#1D1C1D" d="M8.792 22.4a1.204 1.204 0 0 1-.58-.152 1.24 1.24 0 0 1-.44-.416 1.279 1.279 0 0 1-.102-1.187l2.77-6.48H7.398a1.752 1.752 0 0 1-.864-.222 1.804 1.804 0 0 1-.651-.622 1.862 1.862 0 0 1-.113-1.764L9.777 2.68c.143-.32.372-.592.66-.784a1.77 1.77 0 0 1 .968-.296h4.213c.207 0 .41.055.591.157.181.103.334.25.444.43a1.28 1.28 0 0 1 .07 1.211l-2.796 5.994h3.476c.353-.001.699.105.994.304.294.2.525.484.662.818.137.334.176.701.11 1.057a1.852 1.852 0 0 1-.48.942l-9.017 9.504a1.227 1.227 0 0 1-.88.383Zm2.644-9.574a.595.595 0 0 1 .542.292.692.692 0 0 1 .053.642l-2.954 6.945 8.653-9.131a.484.484 0 0 0 .1-.54.479.479 0 0 0-.177-.219.46.46 0 0 0-.266-.079h-4.503a.649.649 0 0 1-.318-.083.67.67 0 0 1-.24-.23.715.715 0 0 1-.037-.653l3.16-6.815h-4.044a.466.466 0 0 0-.258.078.483.483 0 0 0-.174.209l-3.998 8.893a.497.497 0 0 0 .196.628c.07.04.147.062.226.063h4.04Z"/></svg>