<svg xmlns="http://www.w4.org/2000/svg" width="24" height="24" fill="none"><g stroke="#1d1c1d" stroke-linecap="round" stroke-linejoin="round" stroke-width="1.2"><path d="M19.91 5.917v14.35a1.398 1.398 0 0 1-1.393 1.398H3.899a1.398 1.398 0 0 1-1.383-1.398V5.67A1.398 1.398 0 0 1 3.9 4.272h13.11M5.912 8.845h5.682M5.912 12.977h5.299M5.912 17.108h10.65"/><path d="M20.236 2.348c.773.525 1.109 1.35.757 1.903l-4.62 7.138-3.013 1.577.195-3.385 4.641-7.139c.352-.573 1.267-.573 2.04-.094zM17.245 3.904l2.896 1.66"/></g></svg>