<svg xmlns="http://www.w3.org/2000/svg" width="24" height="24" fill="#1D1C1D"><path fill-rule="evenodd" d="m20.829 4.029 1.237.62a.239.239 0 0 1 0 .43l-1.237.62c-.37.187-.676.484-.859.858l-.62 1.236a.24.24 0 0 1-.43 0l-.62-1.236a1.908 1.908 0 0 0-.86-.858l-1.237-.62a.239.239 0 0 1 0-.43l1.237-.62c.37-.187.676-.485.86-.859l.62-1.236a.24.24 0 0 1 .43 0l.62 1.236c.187.37.485.676.859.859Zm1.237 14.893-1.237-.62a1.908 1.908 0 0 1-.859-.859l-.62-1.236a.24.24 0 0 0-.43 0l-.62 1.236a1.907 1.907 0 0 1-.86.859l-1.237.62a.239.239 0 0 0 0 .43l1.237.62c.374.182.672.488.86.858l.62 1.236a.24.24 0 0 0 .43 0l.62-1.236c.183-.374.489-.672.859-.858l1.237-.62a.239.239 0 0 0 0-.43Zm-9.183-8.926 2.207 1.101.016.008.008.004.655.327a.558.558 0 0 1 0 .999l-.655.327-.008.004-.016.008-2.207 1.101a4.473 4.473 0 0 0-2.003 2.001l-1.102 2.207-.007.014-.004.007-.328.658a.558.558 0 0 1-1 0l-.327-.658-.004-.008-.007-.013-1.102-2.207a4.473 4.473 0 0 0-2.003-2l-2.208-1.102-.015-.008-.008-.004-.656-.327a.558.558 0 0 1 0-.999l.656-.327.008-.004.015-.008 2.208-1.101A4.473 4.473 0 0 0 7 7.994L8.1 5.787l.007-.013.004-.008.328-.657a.558.558 0 0 1 .999 0l.328.657.004.008.007.013 1.102 2.207a4.473 4.473 0 0 0 2.003 2.002Zm-.67 1.342 1.198.597-1.198.598a5.973 5.973 0 0 0-2.674 2.672v.001l-.6 1.2-.599-1.2a5.972 5.972 0 0 0-2.673-2.673h-.001l-1.198-.598 1.198-.597A5.972 5.972 0 0 0 8.34 8.664l.6-1.2.598 1.2a5.973 5.973 0 0 0 2.674 2.672h.001Z" clip-rule="evenodd"/></svg>